# xmcd
#
# Track frame offsets: 
#        150
#        7516
#        24773
#        53429
#        101174
#        136223
#        170022
#
# Disc length: 2901 seconds
#
# Revision: 0
# Processed by: cddbd v1.5.2PL0 Copyright (c) Steve Scherf et al.
# Submitted via: ExactAudioCopy v0.99pb3
#
DISCID=430b5307
DTITLE=Allman Brothers Band - Finger Lakes PAC - Canandaigua, NY - 22.
DTITLE=7.05 Disc 1
DYEAR=2005
DGENRE=Southern Rock
TTITLE0=Tuning
TTITLE1=Done Somebody Wrong  
TTITLE2=Every Hungry Woman  
TTITLE3=Who's Been Talking     
TTITLE4=Black Hearted Woman  
TTITLE5=Gambler's Roll  
TTITLE6=Hoochie Coochie Man  
EXTD=
EXTT0=
EXTT1=
EXTT2=
EXTT3=
EXTT4=
EXTT5=
EXTT6=
PLAYORDER=
